REM DIRINDEX 1\2,1\3
REM DIRNAME cjc039,folder01,folder02
TITLE ""
FILE "2841-2860.mp3" MP3
  TRACK 01 AUDIO
    TITLE "0:"
    INDEX 01 00:00:00
  TRACK 02 AUDIO
    TITLE "2:cjc039_4681"
    INDEX 01 00:00:23
  TRACK 03 AUDIO
    TITLE "0:"
    INDEX 01 00:01:34
  TRACK 04 AUDIO
    TITLE "3:cjc039_4682"
    INDEX 01 00:02:06
  TRACK 05 AUDIO
    TITLE "0:"
    INDEX 01 00:04:60
  TRACK 06 AUDIO
    TITLE "2:cjc039_4683"
    INDEX 01 00:06:41
  TRACK 07 AUDIO
    TITLE "0:"
    INDEX 01 00:08:13
  TRACK 08 AUDIO
    TITLE "3:cjc039_4684"
    INDEX 01 00:08:66
  TRACK 09 AUDIO
    TITLE "0:"
    INDEX 01 00:13:04
  TRACK 10 AUDIO
    TITLE "2:cjc039_4685"
    INDEX 01 00:14:47
  TRACK 11 AUDIO
    TITLE "0:"
    INDEX 01 00:15:60
  TRACK 12 AUDIO
    TITLE "3:cjc039_4686"
    INDEX 01 00:16:38
  TRACK 13 AUDIO
    TITLE "0:"
    INDEX 01 00:19:69
  TRACK 14 AUDIO
    TITLE "2:cjc039_4687"
    INDEX 01 00:21:45
  TRACK 15 AUDIO
    TITLE "0:"
    INDEX 01 00:23:01
  TRACK 16 AUDIO
    TITLE "3:cjc039_4688"
    INDEX 01 00:23:46
  TRACK 17 AUDIO
    TITLE "0:"
    INDEX 01 00:27:36
  TRACK 18 AUDIO
    TITLE "2:cjc039_4689"
    INDEX 01 00:29:03
  TRACK 19 AUDIO
    TITLE "0:"
    INDEX 01 00:30:18
  TRACK 20 AUDIO
    TITLE "3:cjc039_4690"
    INDEX 01 00:30:73
  TRACK 21 AUDIO
    TITLE "0:"
    INDEX 01 00:34:36
  TRACK 22 AUDIO
    TITLE "2:cjc039_4691"
    INDEX 01 00:36:07
  TRACK 23 AUDIO
    TITLE "0:"
    INDEX 01 00:37:30
  TRACK 24 AUDIO
    TITLE "3:cjc039_4692"
    INDEX 01 00:38:08
  TRACK 25 AUDIO
    TITLE "0:"
    INDEX 01 00:41:36
  TRACK 26 AUDIO
    TITLE "2:cjc039_4693"
    INDEX 01 00:43:09
  TRACK 27 AUDIO
    TITLE "0:"
    INDEX 01 00:44:24
  TRACK 28 AUDIO
    TITLE "3:cjc039_4694"
    INDEX 01 00:45:02
  TRACK 29 AUDIO
    TITLE "0:"
    INDEX 01 00:48:16
  TRACK 30 AUDIO
    TITLE "2:cjc039_4695"
    INDEX 01 00:49:67
  TRACK 31 AUDIO
    TITLE "0:"
    INDEX 01 00:51:28
  TRACK 32 AUDIO
    TITLE "3:cjc039_4696"
    INDEX 01 00:52:06
  TRACK 33 AUDIO
    TITLE "0:"
    INDEX 01 00:55:67
  TRACK 34 AUDIO
    TITLE "2:cjc039_4697"
    INDEX 01 00:57:45
  TRACK 35 AUDIO
    TITLE "0:"
    INDEX 01 00:58:69
  TRACK 36 AUDIO
    TITLE "3:cjc039_4698"
    INDEX 01 00:59:45
  TRACK 37 AUDIO
    TITLE "0:"
    INDEX 01 01:02:55
  TRACK 38 AUDIO
    TITLE "2:cjc039_4699"
    INDEX 01 01:04:39
  TRACK 39 AUDIO
    TITLE "0:"
    INDEX 01 01:05:48
  TRACK 40 AUDIO
    TITLE "3:cjc039_4700"
    INDEX 01 01:06:32
  TRACK 41 AUDIO
    TITLE "0:"
    INDEX 01 01:10:06
  TRACK 42 AUDIO
    TITLE "2:cjc039_4701"
    INDEX 01 01:11:47
  TRACK 43 AUDIO
    TITLE "0:"
    INDEX 01 01:12:60
  TRACK 44 AUDIO
    TITLE "3:cjc039_4702"
    INDEX 01 01:13:36
  TRACK 45 AUDIO
    TITLE "0:"
    INDEX 01 01:16:58
  TRACK 46 AUDIO
    TITLE "2:cjc039_4703"
    INDEX 01 01:18:27
  TRACK 47 AUDIO
    TITLE "0:"
    INDEX 01 01:19:60
  TRACK 48 AUDIO
    TITLE "3:cjc039_4704"
    INDEX 01 01:20:32
  TRACK 49 AUDIO
    TITLE "0:"
    INDEX 01 01:24:39
  TRACK 50 AUDIO
    TITLE "2:cjc039_4705"
    INDEX 01 01:26:13
  TRACK 51 AUDIO
    TITLE "0:"
    INDEX 01 01:27:12
  TRACK 52 AUDIO
    TITLE "3:cjc039_4706"
    INDEX 01 01:27:63
  TRACK 53 AUDIO
    TITLE "0:"
    INDEX 01 01:30:46
  TRACK 54 AUDIO
    TITLE "2:cjc039_4707"
    INDEX 01 01:32:19
  TRACK 55 AUDIO
    TITLE "0:"
    INDEX 01 01:33:54
  TRACK 56 AUDIO
    TITLE "3:cjc039_4708"
    INDEX 01 01:34:24
  TRACK 57 AUDIO
    TITLE "0:"
    INDEX 01 01:39:39
  TRACK 58 AUDIO
    TITLE "2:cjc039_4709"
    INDEX 01 01:41:16
  TRACK 59 AUDIO
    TITLE "0:"
    INDEX 01 01:42:22
  TRACK 60 AUDIO
    TITLE "3:cjc039_4710"
    INDEX 01 01:43:03
  TRACK 61 AUDIO
    TITLE "0:"
    INDEX 01 01:45:45
  TRACK 62 AUDIO
    TITLE "2:cjc039_4711"
    INDEX 01 01:47:19
  TRACK 63 AUDIO
    TITLE "0:"
    INDEX 01 01:48:69
  TRACK 64 AUDIO
    TITLE "3:cjc039_4712"
    INDEX 01 01:49:41
  TRACK 65 AUDIO
    TITLE "0:"
    INDEX 01 01:53:31
  TRACK 66 AUDIO
    TITLE "2:cjc039_4713"
    INDEX 01 01:55:07
  TRACK 67 AUDIO
    TITLE "0:"
    INDEX 01 01:56:22
  TRACK 68 AUDIO
    TITLE "3:cjc039_4714"
    INDEX 01 01:57:02
  TRACK 69 AUDIO
    TITLE "0:"
    INDEX 01 02:00:00
  TRACK 70 AUDIO
    TITLE "2:cjc039_4715"
    INDEX 01 02:01:52
  TRACK 71 AUDIO
    TITLE "0:"
    INDEX 01 02:02:60
  TRACK 72 AUDIO
    TITLE "3:cjc039_4716"
    INDEX 01 02:03:34
  TRACK 73 AUDIO
    TITLE "0:"
    INDEX 01 02:06:55
  TRACK 74 AUDIO
    TITLE "2:cjc039_4717"
    INDEX 01 02:08:37
  TRACK 75 AUDIO
    TITLE "0:"
    INDEX 01 02:09:54
  TRACK 76 AUDIO
    TITLE "3:cjc039_4718"
    INDEX 01 02:10:36
  TRACK 77 AUDIO
    TITLE "0:"
    INDEX 01 02:12:66
  TRACK 78 AUDIO
    TITLE "2:cjc039_4719"
    INDEX 01 02:14:41
  TRACK 79 AUDIO
    TITLE "0:"
    INDEX 01 02:15:51
  TRACK 80 AUDIO
    TITLE "3:cjc039_4720"
    INDEX 01 02:16:23
  TRACK 81 AUDIO
    TITLE "0:"
    INDEX 01 02:21:39
